<?xml version="1.0" encoding="UTF-8" standalone="no"?>
<!-- Created with Inkscape (http://www.inkscape.org/) -->

<svg
   sodipodi:docname="MacKeyboardBehaviorLogo.svg"
   xml:space="preserve"
   id="svg5"
   version="1.1"
   viewBox="0 0 210 297"
   height="297mm"
   width="210mm"
   inkscape:version="1.2.2 (b0a8486541, 2022-12-01)"
   xmlns:inkscape="http://www.inkscape.org/namespaces/inkscape"
   xmlns:sodipodi="http://sodipodi.sourceforge.net/DTD/sodipodi-0.dtd"
   xmlns="http://www.w3.org/2000/svg"
   xmlns:svg="http://www.w3.org/2000/svg"><sodipodi:namedview
     id="namedview7"
     pagecolor="#ffffff"
     bordercolor="#000000"
     borderopacity="0.25"
     inkscape:showpageshadow="2"
     inkscape:pageopacity="0.0"
     inkscape:pagecheckerboard="0"
     inkscape:deskcolor="#d1d1d1"
     inkscape:document-units="mm"
     showgrid="false"
     inkscape:zoom="1"
     inkscape:cx="296"
     inkscape:cy="444.5"
     inkscape:window-width="1920"
     inkscape:window-height="1011"
     inkscape:window-x="0"
     inkscape:window-y="32"
     inkscape:window-maximized="1"
     inkscape:current-layer="layer1"
     showguides="false"><sodipodi:guide
       position="109.50942,118.16275"
       orientation="0,-1"
       id="guide62837"
       inkscape:locked="false" /><sodipodi:guide
       position="113.16303,120.28443"
       orientation="0,-1"
       id="guide62839"
       inkscape:locked="false" /><sodipodi:guide
       position="109.80916,118.71492"
       orientation="0,-1"
       id="guide62841"
       inkscape:locked="false" /><sodipodi:guide
       position="109.99059,120.82102"
       orientation="0,-1"
       id="guide62843"
       inkscape:locked="false" /><sodipodi:guide
       position="109.05191,121.8859"
       orientation="1,0"
       id="guide62845"
       inkscape:locked="false" /><sodipodi:guide
       position="110.65318,122.12254"
       orientation="1,0"
       id="guide62847"
       inkscape:locked="false" /><sodipodi:guide
       position="111.24478,121.97267"
       orientation="1,0"
       id="guide62849"
       inkscape:locked="false" /><sodipodi:guide
       position="109.46998,116.82179"
       orientation="0,-1"
       id="guide62853"
       inkscape:locked="false" /><sodipodi:guide
       position="112.02569,121.08132"
       orientation="1,0"
       id="guide62855"
       inkscape:locked="false" /><sodipodi:guide
       position="83.628633,95.879684"
       orientation="0,-1"
       id="guide74077"
       inkscape:locked="false" /><sodipodi:guide
       position="53.97508,125.72033"
       orientation="1,0"
       id="guide74079"
       inkscape:locked="false" /><sodipodi:guide
       position="45.369001,90.687973"
       orientation="0,-1"
       id="guide74081"
       inkscape:locked="false" /><sodipodi:guide
       position="101.89777,39.647234"
       orientation="0,-1"
       id="guide74271"
       inkscape:locked="false" /><sodipodi:guide
       position="69.764467,36.673691"
       orientation="0,-1"
       id="guide74273"
       inkscape:locked="false" /></sodipodi:namedview><defs
     id="defs2"><clipPath
       clipPathUnits="userSpaceOnUse"
       id="clipPath57538"><rect
         style="opacity:1;fill:#e5137c;fill-opacity:1;stroke:none;stroke-width:0.07;stroke-dasharray:none;stroke-opacity:1"
         id="rect57540"
         width="19.521441"
         height="18.273685"
         x="82.242821"
         y="64.181847" /></clipPath><clipPath
       clipPathUnits="userSpaceOnUse"
       id="clipPath57542"><rect
         style="opacity:1;fill:#e5137c;fill-opacity:1;stroke:none;stroke-width:0.07;stroke-dasharray:none;stroke-opacity:1"
         id="rect57544"
         width="16.878712"
         height="14.825023"
         x="128.86615"
         y="82.265793" /></clipPath><clipPath
       clipPathUnits="userSpaceOnUse"
       id="clipPath57546"><rect
         style="opacity:1;fill:#e5137c;fill-opacity:1;stroke:none;stroke-width:0.07;stroke-dasharray:none;stroke-opacity:1"
         id="rect57548"
         width="18.689816"
         height="16.439232"
         x="185.00227"
         y="97.406128" /></clipPath><filter
       style="color-interpolation-filters:sRGB;"
       inkscape:label="Drop Shadow"
       id="filter73390"
       x="-0.1264013"
       y="-0.21989809"
       width="1.2430794"
       height="1.7146688"><feFlood
         flood-opacity="0.498039"
         flood-color="rgb(0,0,0)"
         result="flood"
         id="feFlood73380" /><feComposite
         in="flood"
         in2="SourceGraphic"
         operator="in"
         result="composite1"
         id="feComposite73382" /><feGaussianBlur
         in="composite1"
         stdDeviation="1"
         result="blur"
         id="feGaussianBlur73384" /><feOffset
         dx="-0.2"
         dy="3"
         result="offset"
         id="feOffset73386" /><feComposite
         in="SourceGraphic"
         in2="offset"
         operator="over"
         result="fbSourceGraphic"
         id="feComposite73388" /><feColorMatrix
         result="fbSourceGraphicAlpha"
         in="fbSourceGraphic"
         values="0 0 0 -1 0 0 0 0 -1 0 0 0 0 -1 0 0 0 0 1 0"
         id="feColorMatrix73824" /><feFlood
         id="feFlood73826"
         flood-opacity="0.498039"
         flood-color="rgb(0,0,0)"
         result="flood"
         in="fbSourceGraphic" /><feComposite
         in2="fbSourceGraphic"
         id="feComposite73828"
         in="flood"
         operator="in"
         result="composite1" /><feGaussianBlur
         id="feGaussianBlur73830"
         in="composite1"
         stdDeviation="1"
         result="blur" /><feOffset
         id="feOffset73832"
         dx="-0.2"
         dy="3"
         result="offset" /><feComposite
         in2="offset"
         id="feComposite73834"
         in="fbSourceGraphic"
         operator="over"
         result="composite2" /></filter><filter
       style="color-interpolation-filters:sRGB;"
       inkscape:label="Drop Shadow"
       id="filter73882"
       x="-0.15009662"
       y="-0.22274525"
       width="1.2626691"
       height="1.7239221"><feFlood
         flood-opacity="0.498039"
         flood-color="rgb(0,0,0)"
         result="flood"
         id="feFlood73872" /><feComposite
         in="flood"
         in2="SourceGraphic"
         operator="in"
         result="composite1"
         id="feComposite73874" /><feGaussianBlur
         in="composite1"
         stdDeviation="1"
         result="blur"
         id="feGaussianBlur73876" /><feOffset
         dx="-0.8"
         dy="3"
         result="offset"
         id="feOffset73878" /><feComposite
         in="SourceGraphic"
         in2="offset"
         operator="over"
         result="fbSourceGraphic"
         id="feComposite73880" /><feColorMatrix
         result="fbSourceGraphicAlpha"
         in="fbSourceGraphic"
         values="0 0 0 -1 0 0 0 0 -1 0 0 0 0 -1 0 0 0 0 1 0"
         id="feColorMatrix73884" /><feFlood
         id="feFlood73886"
         flood-opacity="0.498039"
         flood-color="rgb(0,0,0)"
         result="flood"
         in="fbSourceGraphic" /><feComposite
         in2="fbSourceGraphic"
         id="feComposite73888"
         in="flood"
         operator="in"
         result="composite1" /><feGaussianBlur
         id="feGaussianBlur73890"
         in="composite1"
         stdDeviation="1"
         result="blur" /><feOffset
         id="feOffset73892"
         dx="-0.8"
         dy="3"
         result="offset" /><feComposite
         in2="offset"
         id="feComposite73894"
         in="fbSourceGraphic"
         operator="over"
         result="composite2" /></filter><filter
       style="color-interpolation-filters:sRGB;"
       inkscape:label="Drop Shadow"
       id="filter73930"
       x="-0.14124935"
       y="-0.23009544"
       width="1.2409548"
       height="1.7478102"><feFlood
         flood-opacity="0.498039"
         flood-color="rgb(0,0,0)"
         result="flood"
         id="feFlood73920" /><feComposite
         in="flood"
         in2="SourceGraphic"
         operator="in"
         result="composite1"
         id="feComposite73922" /><feGaussianBlur
         in="composite1"
         stdDeviation="1"
         result="blur"
         id="feGaussianBlur73924" /><feOffset
         dx="-1"
         dy="3"
         result="offset"
         id="feOffset73926" /><feComposite
         in="SourceGraphic"
         in2="offset"
         operator="over"
         result="fbSourceGraphic"
         id="feComposite73928" /><feColorMatrix
         result="fbSourceGraphicAlpha"
         in="fbSourceGraphic"
         values="0 0 0 -1 0 0 0 0 -1 0 0 0 0 -1 0 0 0 0 1 0"
         id="feColorMatrix73932" /><feFlood
         id="feFlood73934"
         flood-opacity="0.498039"
         flood-color="rgb(0,0,0)"
         result="flood"
         in="fbSourceGraphic" /><feComposite
         in2="fbSourceGraphic"
         id="feComposite73936"
         in="flood"
         operator="in"
         result="composite1" /><feGaussianBlur
         id="feGaussianBlur73938"
         in="composite1"
         stdDeviation="1"
         result="blur" /><feOffset
         id="feOffset73940"
         dx="-1"
         dy="3"
         result="offset" /><feComposite
         in2="offset"
         id="feComposite73942"
         in="fbSourceGraphic"
         operator="over"
         result="composite2" /></filter></defs><g
     inkscape:label="Layer 1"
     inkscape:groupmode="layer"
     id="layer1"><path
       style="fill:#cdcdcd;fill-opacity:1;stroke:#c7c7c7;stroke-width:0.07;stroke-dasharray:none;stroke-opacity:1"
       d="m 30.398504,137.75278 -0.201763,0.64421 0.198945,2.90544 c 0,0 0.256686,1.01865 1.256395,1.28074 0.99971,0.2621 16.834231,2.95519 34.120447,0.51488 3.122383,-0.68558 5.012093,-0.99785 5.463193,-2.93378 -0.0414,-1.30897 -0.0327,-3.51815 -0.0327,-3.51815 0,0 -27.590099,-1.94154 -40.804497,1.10666 z"
       id="path1882" /><path
       style="display:inline;fill:#111111;fill-opacity:1;stroke:#cdcdcd;stroke-width:0.07;stroke-dasharray:none;stroke-opacity:1"
       d="m 30.419938,137.68604 5.430197,-14.68544 c 0,0 0.350634,-0.99876 2.018866,-0.97742 1.668235,0.0214 30.90625,-0.0169 30.90625,-0.0169 0,0 1.54829,0.17965 1.60612,1.36911 0.0578,1.18946 0.88845,13.19201 0.88845,13.19201 0,0 -0.60115,1.74085 -3.24148,2.49426 -2.940993,0.83921 -7.093303,1.3503 -15.602848,1.58774 -5.33919,0.14898 -11.531952,0.0667 -15.574138,-0.46683 -4.042185,-0.53354 -6.189702,-1.64421 -6.431417,-2.49653 z"
       id="path1272"
       sodipodi:nodetypes="ccccscsssc" /><g
       aria-label="Ctrl"
       id="text7534"
       style="font-size:8.98419px;font-family:TT;-inkscape-font-specification:TT;fill:#cdcdcd;stroke-width:0.117432"
       transform="translate(-41.333672,-127.1227)"><path
         d="m 87.0764,256.039 c -0.6436,0 -1.1808,0.11 -1.6121,0.331 -0.4324,0.222 -0.7032,0.526 -0.8119,0.913 -0.1082,0.386 -0.0217,0.693 0.2602,0.92 0.2888,0.225 0.782,0.336 1.4788,0.335 0.2661,0 0.5211,-0.012 0.765,-0.036 0.2438,-0.024 0.4833,-0.053 0.7186,-0.089 l -0.0903,0.343 c -0.2381,0.044 -0.4817,0.077 -0.7308,0.098 -0.2435,0.021 -0.5326,0.031 -0.8672,0.032 -0.6185,10e-4 -1.117,-0.064 -1.4948,-0.195 -0.3775,-0.132 -0.6369,-0.319 -0.7782,-0.561 -0.1353,-0.242 -0.1566,-0.525 -0.0643,-0.85 0.0888,-0.313 0.2765,-0.587 0.5627,-0.823 0.292,-0.239 0.6721,-0.423 1.1403,-0.555 0.4682,-0.134 1.0094,-0.202 1.624,-0.202 0.6309,0 1.1646,0.06 1.6017,0.18 l -0.3874,0.326 c -0.1732,-0.043 -0.3698,-0.082 -0.5899,-0.116 -0.2144,-0.034 -0.4559,-0.051 -0.7244,-0.051 z"
         style="font-family:sans-serif;-inkscape-font-specification:sans-serif"
         id="path9826" /><path
         d="m 90.5699,258.562 c 0.1127,0 0.2293,-0.005 0.3498,-0.014 0.1213,-0.011 0.2199,-0.023 0.2961,-0.035 l -0.073,0.294 c -0.084,0.02 -0.2009,0.037 -0.3505,0.049 -0.1504,0.014 -0.2934,0.022 -0.4289,0.022 -0.2371,0.001 -0.4522,-0.019 -0.6452,-0.06 -0.1865,-0.044 -0.3283,-0.118 -0.4255,-0.223 -0.0971,-0.105 -0.1211,-0.252 -0.0723,-0.442 l 0.3495,-1.354 h -0.6385 l 0.0473,-0.181 0.6851,-0.151 0.4189,-0.489 h 0.4347 l -0.1343,0.527 h 1.2978 l -0.0727,0.292 -1.2996,10e-4 -0.3424,1.345 c -0.0363,0.143 0.0014,0.249 0.1133,0.319 0.1183,0.067 0.2818,0.1 0.4904,0.1 z"
         style="font-family:sans-serif;-inkscape-font-specification:sans-serif"
         id="path9828" /><path
         d="m 94.7064,256.46 c 0.0833,0 0.1716,0.003 0.2647,0.009 0.0994,0.003 0.1842,0.008 0.2544,0.017 l -0.1725,0.348 c -0.0703,-0.009 -0.1493,-0.016 -0.2371,-0.022 -0.0821,-0.005 -0.1622,-0.008 -0.2401,-0.008 -0.2283,0 -0.4506,0.033 -0.6668,0.099 -0.2158,0.064 -0.3992,0.154 -0.5503,0.273 -0.145,0.115 -0.2363,0.251 -0.2739,0.407 l -0.3001,1.247 -0.7435,0.001 0.568,-2.327 h 0.6016 l -0.0181,0.421 h 0.0335 c 0.1753,-0.126 0.3881,-0.235 0.6383,-0.327 0.2499,-0.092 0.5305,-0.138 0.8418,-0.138 z"
         style="font-family:sans-serif;-inkscape-font-specification:sans-serif"
         id="path9830" /><path
         d="m 96.2658,258.824 -0.7406,10e-4 0.7472,-3.278 h 0.729 z"
         style="font-family:sans-serif;-inkscape-font-specification:sans-serif"
         id="path9832" /></g><path
       style="display:inline;fill:#cdcdcd;fill-opacity:1;stroke:#c7c7c7;stroke-width:0.07;stroke-dasharray:none;stroke-opacity:1"
       d="m 79.980211,122.62915 -0.8113,1.28989 c 0,0 0.51993,8.19884 1.51488,15.97674 0.41254,0.84275 -0.32598,1.3523 3.05552,2.90325 1.85326,0.85001 17.242239,2.87668 36.873789,-0.51675 0.72886,-0.3244 1.49782,0.2583 1.07396,-4.91978 -4.16377,-1.76053 -41.706849,-14.73335 -41.706849,-14.73335 z"
       id="path9958"
       sodipodi:nodetypes="cccsccc" /><path
       style="display:inline;fill:#111111;fill-opacity:1;stroke:#cdcdcd;stroke-width:0.07;stroke-dasharray:none;stroke-opacity:1"
       d="m 81.774901,137.49479 -1.8075,-14.85624 c 0,0 0.53841,-1.00195 2.05446,-0.89934 1.66823,0.0214 31.447059,0.3729 31.447059,0.3729 0,0 1.00031,0.34703 1.60612,1.36911 0.6072,1.02443 6.54191,13.72531 6.54191,13.72531 0,0 0.6724,1.48429 -1.50138,1.77159 -3.03202,0.40074 -7.48305,1.34955 -15.99259,1.58699 -5.339189,0.14898 -12.000549,0.0522 -16.042739,-0.48131 -4.04219,-0.53354 -6.06362,-1.73669 -6.30534,-2.58901 z"
       id="path9902"
       sodipodi:nodetypes="ccccscsssc" /><path
       style="fill:#cdcdcd;fill-opacity:1;stroke:none;stroke-width:0.331999"
       d="m 93.726301,132.45155 5.23604,0.28692 -0.66494,-2.35823 -5.11402,0.017 z"
       id="path11467"
       sodipodi:nodetypes="ccccc" /><path
       style="fill:#cdcdcd;fill-opacity:1;stroke:none;stroke-width:0.331999"
       d="m 92.634861,128.01316 0.46652,1.94747 5.11516,7e-4 -0.73194,-2.24335 z"
       id="path11469"
       sodipodi:nodetypes="ccccc" /><path
       style="fill:#cdcdcd;fill-opacity:1;stroke:none;stroke-width:0.331999"
       d="m 98.896721,129.99693 6.751299,-0.0299 -0.97579,-2.71154 -6.551429,0.37114 z"
       id="path11471"
       sodipodi:nodetypes="ccccc" /><path
       style="fill:#cdcdcd;fill-opacity:1;stroke:none;stroke-width:0.331999"
       d="m 98.991471,130.39762 0.75542,2.41138 7.259299,0.54119 -1.19384,-2.96801 z"
       id="path11473"
       sodipodi:nodetypes="ccccc" /><path
       style="display:inline;fill:#cdcdcd;fill-opacity:1;stroke:#c7c7c7;stroke-width:0.07;stroke-dasharray:none;stroke-opacity:1"
       d="m 123.78516,122.66148 c 0,0 -1.25695,1.30367 -1.25434,2.66251 0.9351,1.72274 8.24822,14.2335 8.24822,14.2335 0,0 1.17087,2.41922 6.24649,3.1193 5.07563,0.70008 26.00027,1.64981 32.02878,-0.37299 0.35656,-0.55088 1.61832,-4.84135 1.61832,-4.84135 z"
       id="path11477"
       sodipodi:nodetypes="cccsccc" /><path
       style="display:inline;fill:#111111;fill-opacity:1;stroke:#cdcdcd;stroke-width:0.07;stroke-dasharray:none;stroke-opacity:1"
       d="m 123.76075,122.66768 8.83065,14.48387 c 0,0 1.83642,1.578 5.48918,2.39868 4.60319,0.43142 22.22993,1.83577 32.09483,-1.13963 0.42252,-0.43257 0.65073,-0.77264 0.3265,-1.85577 -1.10565,-1.30313 -12.61345,-13.48881 -12.61345,-13.48881 0,0 -1.56273,-1.55879 -3.46698,-1.2725 -2.08271,0.17453 -29.00967,0.16041 -29.00967,0.16041 0,0 -1.17428,-0.0716 -1.65106,0.71375 z"
       id="path11475" /><g
       aria-label="Alt"
       id="text12260"
       style="font-size:8.21712px;-inkscape-font-specification:sans-serif;fill:#cdcdcd;stroke-width:0.107405"
       transform="matrix(0,-1,-1,0,298.96718,315.67888)"><path
         d="m 184.19,158.672 0.899,1.3 0.016,2.425 -0.874,0.228 0.008,0.776 2.762,-0.773 0.001,-0.67 -2.82,-4.113 z m 2.057,2.905 c 0.02,0.029 0.057,0.079 0.111,0.15 0.053,0.07 0.107,0.141 0.163,0.213 0.058,0.068 0.102,0.121 0.132,0.161 -0.078,-0.006 -0.155,-0.007 -0.231,-0.001 -0.073,0.007 -0.131,0.014 -0.174,0.023 l -0.831,0.199 -0.01,-1.925 z"
         id="path13819" /><path
         d="m 184.166,156.282 0.008,0.793 2.996,1.926 0.003,-0.75 z"
         id="path13821" /><path
         d="m 184.393,153.264 c -0.001,-0.124 0.002,-0.247 0.009,-0.371 0.01,-0.122 0.02,-0.22 0.03,-0.292 l -0.281,-0.201 c -0.019,0.073 -0.033,0.186 -0.043,0.34 -0.012,0.152 -0.017,0.302 -0.016,0.451 0.003,0.26 0.025,0.514 0.066,0.763 0.044,0.244 0.117,0.467 0.218,0.67 0.101,0.202 0.24,0.363 0.418,0.484 l 1.254,0.852 0.001,0.671 0.164,0.11 0.136,-0.585 0.442,-0.006 0.001,-0.456 -0.479,-0.331 -10e-4,-1.383 -0.269,-0.192 0.003,1.39 -1.249,-0.865 c -0.135,-0.093 -0.236,-0.233 -0.304,-0.42 -0.065,-0.191 -0.098,-0.401 -0.1,-0.629 z"
         id="path13823" /></g><path
       style="fill:#7d7b7c;fill-opacity:1;stroke:none;stroke-width:0.07;stroke-dasharray:none;stroke-opacity:1;filter:url(#filter73390)"
       d="m 30.398504,121.72171 -0.201763,0.64421 0.198945,2.90544 c 0,0 0.256686,1.01865 1.256395,1.28074 0.99971,0.2621 16.834231,2.95519 34.120447,0.51488 3.122383,-0.68558 5.012093,-0.99785 5.463193,-2.93378 0.48962,-1.56134 -0.98077,-16.51899 -0.98077,-16.51899 0,0 -33.624878,-2.8831 -34.588585,-0.25552 z"
       id="path14152"
       sodipodi:nodetypes="cccscccsc" /><path
       style="display:inline;fill:#f5f5f3;fill-opacity:1;stroke:#b0aca1;stroke-width:0.07;stroke-dasharray:none;stroke-opacity:1"
       d="m 30.419938,121.65497 5.430197,-14.68544 c 0,0 0.350634,-0.99876 2.018866,-0.97742 1.668235,0.0214 30.90625,-0.0169 30.90625,-0.0169 0,0 1.54829,0.17965 1.60612,1.36911 0.0578,1.18946 0.88845,13.19201 0.88845,13.19201 0,0 -0.60115,1.74085 -3.24148,2.49426 -2.940993,0.83921 -7.093303,1.3503 -15.602848,1.58774 -5.33919,0.14898 -11.531952,0.0667 -15.574138,-0.46683 -4.042185,-0.53354 -6.189702,-1.64421 -6.431417,-2.49653 z"
       id="path14154"
       sodipodi:nodetypes="ccccscsssc" /><path
       style="display:inline;fill:#7d7b7c;fill-opacity:1;stroke:none;stroke-width:0.07;stroke-dasharray:none;stroke-opacity:1;filter:url(#filter73882)"
       d="m 79.980211,106.59808 -0.8113,1.28989 c 0,0 0.51993,8.19884 1.51488,15.97674 0.41254,0.84275 -0.32598,1.3523 3.05552,2.90325 1.85326,0.85001 17.242239,2.87668 36.873789,-0.51675 0.72886,-0.3244 1.49782,0.2583 1.07396,-4.91978 -4.16377,-1.76053 -41.706849,-14.73335 -41.706849,-14.73335 z"
       id="path14166"
       sodipodi:nodetypes="cccsccc" /><path
       style="display:inline;fill:#f5f5f3;fill-opacity:1;stroke:#b0aca1;stroke-width:0.07;stroke-dasharray:none;stroke-opacity:1"
       d="m 81.774901,121.46372 -1.8075,-14.85624 c 0,0 0.53841,-1.00195 2.05446,-0.89934 1.66823,0.0214 31.447059,0.3729 31.447059,0.3729 0,0 1.00031,0.34703 1.60612,1.36911 0.6072,1.02443 6.54191,13.72531 6.54191,13.72531 0,0 0.6724,1.48429 -1.50138,1.77159 -3.03202,0.40074 -7.48305,1.34955 -15.99259,1.58699 -5.339189,0.14898 -12.000549,0.0522 -16.042739,-0.48131 -4.04219,-0.53354 -6.06362,-1.73669 -6.30534,-2.58901 z"
       id="path14168"
       sodipodi:nodetypes="ccccscsssc" /><path
       style="display:inline;fill:#7d7b7c;fill-opacity:1;stroke:none;stroke-width:0.07;stroke-dasharray:none;stroke-opacity:1;filter:url(#filter73930)"
       d="m 123.78516,106.63041 c 0,0 -1.25695,1.30367 -1.25434,2.66251 0.9351,1.72274 8.24822,14.2335 8.24822,14.2335 0,0 1.17087,2.41922 6.24649,3.1193 5.07563,0.70008 26.00027,1.64981 32.02878,-0.37299 0.35656,-0.55088 1.61832,-4.84135 1.61832,-4.84135 z"
       id="path14178"
       sodipodi:nodetypes="cccsccc" /><path
       style="display:inline;fill:#f5f5f3;fill-opacity:1;stroke:#b0aca1;stroke-width:0.07;stroke-dasharray:none;stroke-opacity:1"
       d="m 123.76075,106.63661 8.83065,14.48387 c 0,0 1.83642,1.578 5.48918,2.39868 4.60319,0.43142 22.22993,1.83577 32.09483,-1.13963 0.42252,-0.43257 0.65073,-0.77264 0.3265,-1.85577 -1.10565,-1.30313 -12.61345,-13.48881 -12.61345,-13.48881 0,0 -1.56273,-1.55879 -3.46698,-1.2725 -2.08271,0.17453 -29.00967,0.16041 -29.00967,0.16041 0,0 -1.17428,-0.0716 -1.65106,0.71375 z"
       id="path14180" /><g
       aria-label="command"
       id="text25955"
       style="font-size:8.46667px;-inkscape-font-specification:sans-serif;opacity:1;fill:#7d7b7c;fill-opacity:1;stroke-width:0.07"
       transform="rotate(90,183.56987,57.826308)"><path
         d="m 246.508,101.973 c 0.004,0.296 -0.031,0.587 -0.107,0.873 -0.075,0.28 -0.194,0.541 -0.357,0.782 -0.162,0.235 -0.37,0.436 -0.623,0.601 -0.263,0.171 -0.477,0.243 -0.642,0.214 -0.165,-0.028 -0.287,-0.132 -0.366,-0.311 -0.079,-0.182 -0.121,-0.42 -0.126,-0.714 -0.003,-0.167 0.007,-0.336 0.028,-0.507 0.018,-0.169 0.042,-0.313 0.072,-0.432 l 0.289,-0.028 c -0.022,0.114 -0.042,0.244 -0.061,0.389 -0.019,0.145 -0.028,0.275 -0.026,0.389 0.01,0.646 0.282,0.794 0.819,0.44 0.259,-0.17 0.457,-0.38 0.595,-0.63 0.135,-0.253 0.201,-0.537 0.196,-0.853 -0.003,-0.183 -0.017,-0.335 -0.044,-0.456 -0.026,-0.125 -0.058,-0.234 -0.095,-0.327 l 0.317,-0.214 c 0.04,0.087 0.07,0.193 0.091,0.318 0.024,0.119 0.037,0.274 0.04,0.466 z"
         id="path30371"
         style="fill:#7d7b7c;fill-opacity:1" /><path
         d="m 245.313,98.1933 c 0.356,-0.2536 0.635,-0.3095 0.837,-0.166 0.202,0.1399 0.307,0.4507 0.314,0.9318 0.004,0.297 -0.035,0.5927 -0.119,0.8867 -0.086,0.2912 -0.212,0.5602 -0.378,0.8082 -0.167,0.249 -0.37,0.454 -0.607,0.616 -0.353,0.241 -0.626,0.288 -0.819,0.142 -0.193,-0.144 -0.292,-0.452 -0.3,-0.922 -0.005,-0.298 0.034,-0.5903 0.117,-0.8763 0.08,-0.2887 0.201,-0.5546 0.362,-0.7978 0.159,-0.2463 0.356,-0.4539 0.593,-0.6226 z m 0.038,2.5127 c 0.254,-0.174 0.455,-0.39 0.603,-0.648 0.147,-0.2605 0.217,-0.5621 0.212,-0.904 -0.005,-0.3379 -0.083,-0.5338 -0.234,-0.5876 -0.153,-0.0517 -0.357,0.0126 -0.611,0.1921 -0.252,0.1786 -0.448,0.3963 -0.588,0.6532 -0.14,0.2561 -0.207,0.5521 -0.201,0.8883 0.005,0.336 0.079,0.531 0.224,0.585 0.144,0.054 0.343,-0.005 0.595,-0.179 z"
         id="path30373"
         style="fill:#7d7b7c;fill-opacity:1" /><path
         d="m 244.147,94.4996 c -0.006,-0.3742 0.051,-0.7009 0.172,-0.9806 0.117,-0.2783 0.313,-0.5232 0.589,-0.735 l 1.408,-1.084 0.008,0.5492 -1.392,1.0639 c -0.336,0.2567 -0.5,0.6093 -0.493,1.0588 0.005,0.3217 0.068,0.508 0.189,0.5594 0.121,0.0473 0.295,-0.0142 0.523,-0.1851 l 1.197,-0.8951 0.008,0.5481 -1.392,1.0335 c -0.335,0.2493 -0.499,0.5999 -0.492,1.0527 0.005,0.3333 0.075,0.5158 0.208,0.5475 0.134,0.0318 0.326,-0.0428 0.575,-0.2244 l 1.124,-0.8169 0.008,0.5534 -2.144,1.5469 -0.007,-0.4368 0.286,-0.2883 -0.001,-0.0308 c -0.112,-0.0227 -0.195,-0.1012 -0.25,-0.2354 -0.057,-0.1363 -0.088,-0.3029 -0.091,-0.4999 -0.008,-0.5172 0.104,-0.9416 0.338,-1.2742 l -0.001,-0.0309 c -0.122,-0.0209 -0.213,-0.1044 -0.274,-0.2504 -0.061,-0.15 -0.092,-0.3318 -0.096,-0.5456 z"
         id="path30375"
         style="fill:#7d7b7c;fill-opacity:1" /><path
         d="m 244.057,88.7177 c -0.006,-0.3763 0.051,-0.7081 0.171,-0.9962 0.118,-0.2866 0.315,-0.544 0.59,-0.7724 l 1.411,-1.169 0.008,0.5521 -1.394,1.1481 c -0.337,0.2769 -0.501,0.6407 -0.494,1.0927 0.005,0.3233 0.068,0.5074 0.189,0.5523 0.121,0.0409 0.296,-0.0306 0.525,-0.2153 l 1.198,-0.9672 0.008,0.5511 -1.394,1.1173 c -0.336,0.2695 -0.5,0.6312 -0.493,1.0865 0.005,0.3351 0.075,0.5148 0.209,0.5393 0.134,0.0246 0.326,-0.0611 0.576,-0.2577 l 1.126,-0.8843 0.008,0.5563 -2.148,1.6755 -0.007,-0.4391 0.286,-0.3059 -10e-4,-0.031 c -0.112,-0.0166 -0.195,-0.0909 -0.25,-0.223 -0.058,-0.1339 -0.088,-0.2999 -0.091,-0.4979 -0.009,-0.5199 0.104,-0.9532 0.338,-1.3008 V 89.498 c -0.123,-0.0142 -0.215,-0.0931 -0.275,-0.2367 -0.061,-0.1475 -0.093,-0.3287 -0.096,-0.5436 z"
         id="path30377"
         style="fill:#7d7b7c;fill-opacity:1" /><path
         d="m 244.007,85.2989 c -0.006,-0.4065 0.045,-0.7557 0.155,-1.048 0.11,-0.2931 0.289,-0.5472 0.539,-0.7625 l 1.476,-1.2757 0.006,0.4075 -0.309,0.3754 v 0.0254 c 0.122,0.0454 0.213,0.1262 0.273,0.2425 0.06,0.1122 0.092,0.3126 0.096,0.601 0.004,0.3096 -0.044,0.6098 -0.145,0.9003 -0.103,0.2922 -0.266,0.5311 -0.488,0.7169 -0.216,0.1804 -0.383,0.1864 -0.502,0.019 -0.122,-0.1648 -0.192,-0.5165 -0.211,-1.0557 l -0.02,-0.5612 -0.128,0.1098 c -0.178,0.1527 -0.3,0.3188 -0.367,0.4985 -0.067,0.1794 -0.098,0.3793 -0.095,0.5997 0.003,0.1747 0.022,0.3264 0.059,0.4554 0.034,0.1313 0.074,0.2478 0.118,0.3496 l -0.258,0.3877 c -0.052,-0.1033 -0.097,-0.2401 -0.134,-0.4103 -0.04,-0.168 -0.062,-0.3597 -0.065,-0.5753 z m 1.134,-1.1317 c 0.017,0.4104 0.064,0.6657 0.142,0.7659 0.077,0.0961 0.185,0.0863 0.323,-0.0296 0.121,-0.1026 0.21,-0.2349 0.265,-0.397 0.056,-0.1665 0.082,-0.3408 0.079,-0.5226 -0.004,-0.2876 -0.058,-0.4837 -0.161,-0.588 -0.106,-0.1018 -0.264,-0.0621 -0.475,0.1183 l -0.193,0.1659 z"
         id="path30379"
         style="fill:#7d7b7c;fill-opacity:1" /><path
         d="m 243.943,81.4642 c -0.006,-0.3995 0.05,-0.7567 0.171,-1.0722 0.118,-0.3138 0.315,-0.5953 0.591,-0.8449 l 1.414,-1.2777 0.008,0.556 -1.39,1.2481 c -0.342,0.3075 -0.509,0.7111 -0.501,1.212 0.006,0.3714 0.076,0.5696 0.21,0.5949 0.135,0.0254 0.327,-0.072 0.578,-0.293 l 1.129,-0.9937 0.008,0.5612 -2.154,1.884 -0.007,-0.4428 0.287,-0.3345 v -0.0313 c -0.113,-0.0109 -0.197,-0.0889 -0.252,-0.234 -0.058,-0.1426 -0.089,-0.3199 -0.092,-0.5321 z"
         id="path30381"
         style="fill:#7d7b7c;fill-opacity:1" /><path
         d="m 246.127,75.9533 c 0.006,0.4271 -0.083,0.8556 -0.268,1.2841 -0.187,0.4294 -0.467,0.8138 -0.838,1.1527 -0.369,0.3363 -0.647,0.4625 -0.836,0.3806 -0.191,-0.0834 -0.29,-0.3336 -0.296,-0.7509 -0.004,-0.2589 0.023,-0.4978 0.08,-0.7171 0.058,-0.2238 0.13,-0.4288 0.216,-0.6151 l -0.001,-0.0377 c -0.034,0.0361 -0.084,0.0915 -0.15,0.166 -0.068,0.0725 -0.122,0.1271 -0.162,0.164 l -0.835,0.7828 -0.009,-0.5468 3.034,-2.8591 0.006,0.4553 -0.294,0.3602 0.001,0.0256 c 0.094,0.0154 0.175,0.0778 0.243,0.1872 0.069,0.1096 0.105,0.299 0.109,0.5682 z m -0.301,0.188 c -0.005,-0.3621 -0.072,-0.5571 -0.199,-0.5849 -0.13,-0.0295 -0.322,0.075 -0.575,0.3123 l -0.065,0.0604 c -0.267,0.2508 -0.47,0.5112 -0.609,0.7815 -0.141,0.2721 -0.208,0.5942 -0.202,0.9669 0.004,0.2972 0.083,0.4517 0.236,0.4637 0.151,0.0102 0.354,-0.101 0.608,-0.3343 0.258,-0.2371 0.458,-0.4961 0.6,-0.7767 0.142,-0.2858 0.211,-0.5823 0.206,-0.8889 z"
         id="path30383"
         style="fill:#7d7b7c;fill-opacity:1" /></g><g
       aria-label="option"
       transform="rotate(90,-8.0411274,-23.994692)"
       id="text26735"
       style="font-size:8.46667px;-inkscape-font-specification:sans-serif;opacity:1;fill:#7d7b7c;stroke-width:0.07"><path
         d="m 135.47,-129.159 c 0.275,-0.087 0.492,0.037 0.65,0.373 0.157,0.331 0.241,0.823 0.249,1.475 0.006,0.404 -0.023,0.774 -0.087,1.112 -0.065,0.332 -0.162,0.607 -0.29,0.825 -0.129,0.218 -0.287,0.352 -0.472,0.402 -0.275,0.075 -0.489,-0.056 -0.641,-0.392 -0.151,-0.334 -0.23,-0.823 -0.237,-1.465 -0.005,-0.407 0.025,-0.774 0.089,-1.101 0.062,-0.332 0.155,-0.604 0.28,-0.816 0.123,-0.218 0.276,-0.356 0.459,-0.413 z m 0.041,3.416 c 0.197,-0.056 0.353,-0.205 0.468,-0.447 0.113,-0.248 0.166,-0.605 0.16,-1.07 -0.006,-0.459 -0.068,-0.778 -0.185,-0.957 -0.12,-0.179 -0.278,-0.238 -0.475,-0.177 -0.196,0.06 -0.348,0.213 -0.456,0.459 -0.108,0.246 -0.16,0.598 -0.155,1.056 0.006,0.459 0.065,0.777 0.178,0.953 0.113,0.177 0.268,0.238 0.465,0.183 z"
         id="path41751" /><path
         d="m 134.584,-132.16 c -0.006,-0.545 0.059,-1.007 0.195,-1.387 0.136,-0.387 0.346,-0.632 0.63,-0.737 0.282,-0.103 0.499,-0.012 0.65,0.274 0.152,0.281 0.232,0.702 0.24,1.261 0.004,0.348 -0.016,0.645 -0.061,0.891 -0.048,0.241 -0.103,0.437 -0.166,0.588 l 0.001,0.05 c 0.035,-0.023 0.08,-0.049 0.134,-0.078 0.054,-0.03 0.101,-0.051 0.141,-0.064 l 0.697,-0.233 0.011,0.748 -2.419,0.789 -0.006,-0.598 0.221,-0.173 v -0.034 c -0.073,-0.109 -0.135,-0.263 -0.186,-0.462 -0.051,-0.199 -0.078,-0.477 -0.082,-0.835 z m 0.226,0.054 c 0.005,0.453 0.056,0.758 0.151,0.915 0.096,0.151 0.241,0.2 0.434,0.147 l 0.052,-0.017 c 0.205,-0.069 0.362,-0.211 0.472,-0.428 0.108,-0.222 0.159,-0.579 0.152,-1.071 -0.003,-0.274 -0.034,-0.488 -0.092,-0.641 -0.059,-0.158 -0.136,-0.262 -0.232,-0.311 -0.098,-0.055 -0.209,-0.059 -0.332,-0.015 -0.189,0.067 -0.338,0.221 -0.447,0.459 -0.11,0.233 -0.162,0.554 -0.158,0.962 z"
         id="path41753" /><path
         d="m 136.016,-137.171 c -0.002,-0.111 -0.006,-0.223 -0.014,-0.336 -0.01,-0.113 -0.019,-0.203 -0.028,-0.272 l 0.208,-0.083 c 0.015,0.071 0.028,0.178 0.038,0.318 0.013,0.14 0.02,0.276 0.021,0.409 0.003,0.233 -0.008,0.455 -0.035,0.666 -0.028,0.206 -0.079,0.384 -0.153,0.535 -0.073,0.15 -0.176,0.25 -0.311,0.301 l -0.955,0.362 0.007,0.626 -0.127,0.047 -0.113,-0.592 -0.346,-0.156 -0.004,-0.425 0.369,-0.143 -0.014,-1.267 0.206,-0.082 0.014,1.27 0.948,-0.367 c 0.101,-0.039 0.176,-0.131 0.224,-0.278 0.046,-0.151 0.067,-0.329 0.065,-0.533 z"
         id="path41755" /><path
         d="m 133.945,-138.204 c -0.001,-0.108 0.012,-0.208 0.039,-0.301 0.024,-0.097 0.066,-0.157 0.123,-0.181 0.056,-0.023 0.098,0.003 0.127,0.077 0.029,0.07 0.044,0.159 0.045,0.267 0.001,0.119 -0.012,0.225 -0.039,0.318 -0.027,0.092 -0.068,0.15 -0.124,0.172 -0.058,0.024 -0.1,0 -0.126,-0.07 -0.029,-0.07 -0.044,-0.164 -0.045,-0.282 z m 0.597,-0.598 1.638,-0.681 0.009,0.727 -1.639,0.67 z"
         id="path41757" /><path
         d="m 135.289,-144.315 c 0.27,-0.126 0.482,-0.04 0.636,0.259 0.155,0.295 0.236,0.757 0.244,1.385 0.005,0.388 -0.023,0.75 -0.085,1.085 -0.064,0.331 -0.159,0.611 -0.284,0.841 -0.127,0.23 -0.282,0.384 -0.463,0.461 -0.27,0.116 -0.479,0.023 -0.627,-0.277 -0.149,-0.299 -0.226,-0.758 -0.233,-1.377 -0.004,-0.392 0.025,-0.75 0.088,-1.076 0.06,-0.33 0.152,-0.606 0.274,-0.831 0.12,-0.229 0.27,-0.385 0.45,-0.47 z m 0.039,3.289 c 0.194,-0.084 0.347,-0.252 0.459,-0.504 0.11,-0.257 0.162,-0.61 0.157,-1.057 -0.006,-0.441 -0.066,-0.739 -0.182,-0.894 -0.117,-0.154 -0.272,-0.186 -0.464,-0.097 -0.192,0.088 -0.341,0.26 -0.447,0.514 -0.106,0.254 -0.157,0.601 -0.152,1.043 0.005,0.442 0.063,0.739 0.174,0.891 0.111,0.153 0.263,0.188 0.455,0.104 z"
         id="path41759" /><path
         d="m 134.421,-147.096 c -0.005,-0.509 0.037,-0.917 0.127,-1.224 0.089,-0.306 0.236,-0.513 0.444,-0.62 l 1.058,-0.547 0.009,0.701 -1.041,0.531 c -0.258,0.131 -0.382,0.515 -0.375,1.152 0.005,0.474 0.058,0.777 0.16,0.909 0.102,0.133 0.248,0.154 0.437,0.061 l 0.848,-0.413 0.009,0.715 -1.624,0.779 -0.006,-0.568 0.217,-0.209 v -0.04 c -0.086,-0.098 -0.149,-0.26 -0.192,-0.485 -0.044,-0.224 -0.068,-0.471 -0.071,-0.742 z"
         id="path41761" /></g><g
       aria-label="control"
       id="text28191"
       style="font-size:8.46667px;-inkscape-font-specification:sans-serif;opacity:1;fill:#7d7b7c;stroke-width:0.07"
       transform="matrix(-0.06983799,1,-1,0,172.97116,6.4304817)"><path
         d="m 113.664,122.74 c -0.004,0.398 -0.046,0.748 -0.126,1.049 -0.079,0.295 -0.2,0.518 -0.362,0.669 -0.161,0.144 -0.365,0.194 -0.611,0.15 -0.255,-0.046 -0.46,-0.174 -0.617,-0.384 -0.156,-0.21 -0.268,-0.475 -0.339,-0.795 -0.07,-0.326 -0.102,-0.686 -0.098,-1.081 0.002,-0.225 0.016,-0.44 0.041,-0.645 0.023,-0.205 0.05,-0.371 0.082,-0.499 l 0.275,0.264 c -0.024,0.129 -0.047,0.28 -0.07,0.453 -0.022,0.173 -0.034,0.336 -0.036,0.49 -0.009,0.87 0.245,1.349 0.767,1.439 0.251,0.043 0.446,-0.03 0.584,-0.219 0.135,-0.195 0.205,-0.506 0.21,-0.93 0.002,-0.246 -0.007,-0.463 -0.029,-0.651 -0.021,-0.194 -0.048,-0.371 -0.081,-0.533 l 0.307,0.046 c 0.036,0.156 0.062,0.328 0.078,0.516 0.019,0.183 0.028,0.403 0.025,0.661 z"
         id="path39629" /><path
         d="m 112.636,116.494 c 0.344,0.034 0.611,0.249 0.798,0.647 0.188,0.394 0.279,0.914 0.272,1.557 -0.004,0.398 -0.05,0.748 -0.138,1.05 -0.09,0.296 -0.217,0.523 -0.381,0.679 -0.166,0.156 -0.364,0.217 -0.595,0.185 -0.342,-0.047 -0.602,-0.268 -0.781,-0.662 -0.179,-0.391 -0.264,-0.902 -0.257,-1.532 0.004,-0.399 0.05,-0.745 0.136,-1.037 0.085,-0.299 0.207,-0.525 0.366,-0.679 0.158,-0.161 0.351,-0.23 0.58,-0.208 z m -0.036,3.362 c 0.246,0.032 0.443,-0.045 0.592,-0.232 0.146,-0.193 0.221,-0.519 0.226,-0.977 0.005,-0.452 -0.064,-0.792 -0.205,-1.019 -0.144,-0.227 -0.339,-0.353 -0.585,-0.379 -0.244,-0.026 -0.436,0.059 -0.576,0.253 -0.14,0.194 -0.212,0.516 -0.217,0.966 -0.005,0.451 0.06,0.786 0.195,1.007 0.136,0.222 0.326,0.349 0.57,0.381 z"
         id="path39631" /><path
         d="m 111.611,113.136 c 0.006,-0.525 0.07,-0.917 0.191,-1.179 0.12,-0.262 0.312,-0.387 0.578,-0.374 l 1.36,0.066 -0.008,0.727 -1.337,-0.074 c -0.329,-0.018 -0.497,0.301 -0.504,0.958 -0.005,0.488 0.055,0.83 0.18,1.026 0.125,0.196 0.309,0.304 0.55,0.323 l 1.087,0.086 -0.008,0.737 -2.074,-0.178 0.006,-0.583 0.279,-0.084 v -0.042 c -0.105,-0.15 -0.181,-0.353 -0.229,-0.609 -0.05,-0.255 -0.074,-0.522 -0.071,-0.8 z"
         id="path39633" /><path
         d="m 113.525,108.761 c 10e-4,-0.111 -0.001,-0.225 -0.008,-0.342 -0.009,-0.117 -0.019,-0.211 -0.028,-0.284 l 0.263,0.004 c 0.018,0.078 0.031,0.19 0.04,0.334 0.012,0.145 0.017,0.285 0.016,0.418 -0.003,0.234 -0.023,0.451 -0.062,0.651 -0.042,0.194 -0.111,0.35 -0.206,0.47 -0.096,0.119 -0.228,0.175 -0.398,0.17 l -1.202,-0.041 -0.007,0.624 -0.159,-0.007 -0.126,-0.635 -0.427,-0.3 0.005,-0.423 0.464,0.012 0.014,-1.267 0.258,0.003 -0.014,1.271 1.194,0.032 c 0.128,0.003 0.224,-0.058 0.288,-0.184 0.061,-0.132 0.093,-0.301 0.095,-0.506 z"
         id="path39635" /><path
         d="m 111.698,105.196 c 0.001,-0.082 0.004,-0.169 0.01,-0.262 0.004,-0.098 0.01,-0.182 0.018,-0.253 l 0.307,0.083 c -0.009,0.072 -0.016,0.151 -0.022,0.238 -0.006,0.082 -0.009,0.161 -0.01,0.238 -0.003,0.224 0.024,0.433 0.081,0.629 0.053,0.197 0.132,0.355 0.235,0.475 0.101,0.114 0.221,0.172 0.36,0.171 l 1.116,-0.003 -0.008,0.734 -2.072,-0.009 0.007,-0.588 0.373,-0.083 v -0.033 c -0.11,-0.141 -0.204,-0.324 -0.283,-0.547 -0.078,-0.222 -0.115,-0.486 -0.112,-0.79 z"
         id="path39637" /><path
         d="m 112.81,100.16 c 0.344,-0.023 0.609,0.147 0.796,0.511 0.187,0.359 0.278,0.859 0.271,1.497 -0.004,0.395 -0.049,0.749 -0.137,1.063 -0.089,0.308 -0.216,0.553 -0.38,0.734 -0.166,0.182 -0.364,0.275 -0.593,0.281 -0.342,0.009 -0.601,-0.167 -0.78,-0.528 -0.178,-0.358 -0.264,-0.85 -0.257,-1.475 0.004,-0.396 0.05,-0.746 0.136,-1.05 0.084,-0.309 0.206,-0.553 0.365,-0.732 0.158,-0.185 0.35,-0.285 0.579,-0.301 z m -0.035,3.336 c 0.245,-0.008 0.442,-0.117 0.589,-0.326 0.146,-0.216 0.222,-0.551 0.226,-1.005 0.005,-0.448 -0.063,-0.774 -0.205,-0.976 -0.143,-0.201 -0.338,-0.294 -0.583,-0.28 -0.244,0.015 -0.435,0.13 -0.575,0.345 -0.14,0.215 -0.212,0.546 -0.217,0.993 -0.004,0.446 0.06,0.768 0.196,0.965 0.135,0.197 0.324,0.292 0.569,0.284 z"
         id="path39639" /><path
         d="m 113.879,98.2031 -0.007,0.7313 -2.91,0.2284 0.008,-0.7102 z"
         id="path39641" /></g><path
       style="opacity:1;fill:#7d7b7c;fill-opacity:1;stroke:none;stroke-width:0.07;stroke-dasharray:none;stroke-opacity:1"
       d="m 63.075281,108.15044 3.6979,3.224 -1.2507,-0.006 -2.4709,-2.086 -2.2806,2.054 -1.2193,-0.006 z"
       id="path62767"
       sodipodi:nodetypes="ccccccc" /><g
       id="g64818"
       transform="rotate(180,115.27359,102.53222)"><path
         style="opacity:1;fill:#7d7b7c;fill-opacity:1;stroke:none;stroke-width:0.07;stroke-dasharray:none;stroke-opacity:1"
         d="m 128.303,97.0591 -2.641,-0.0047 -3.056,-2.2588 -5.07,-0.0124 -0.286,-0.6433 5.713,0.015 3.005,2.2627 2.079,0.0139 z"
         id="path62769"
         sodipodi:nodetypes="ccccccccc" /><path
         style="opacity:1;fill:#7d7b7c;fill-opacity:1;stroke:none;stroke-width:0.07;stroke-dasharray:none;stroke-opacity:1"
         d="m 123.758,97.0526 -0.232,-0.6299 -5.178,-0.0102 0.277,0.624 z"
         id="path62771"
         sodipodi:nodetypes="ccccc" /></g><path
       id="path62773"
       style="opacity:1;fill:#7d7b7c;fill-opacity:1;stroke:none;stroke-width:0.07;stroke-dasharray:none;stroke-opacity:1"
       d="m 153.50318,112.13744 c 0.003,0 0.006,0 0.009,0 0.696,-0.019 0.758,-0.459 0.758,-0.459 l -0.664,-0.759 1.999,-0.02 h 0.02 c 0,0 0.396,0.418 0.672,0.724 2.208,1.009 2.739,0.139 2.25,-0.39 -0.51,-0.485 -1.554,-0.786 -1.554,-0.786 l -1.035,0.011 -1.139,-1.25 1.01,-0.013 c 0.583,-0.593 -0.551,-1.216 -1.337,-1.382 -1.127,-0.239 -1.334,0.343 -1.334,0.343 l 0.578,0.642 -1.967,0.026 -0.546,-0.624 c -2.204,-0.885 -2.492,0.024 -1.806,0.569 0.417,0.331 1.107,0.493 1.107,0.493 l 0.89,-0.011 1.071,1.239 c 0,0 -0.49,0.014 -0.986,0.01 -0.914,0.775 1.282,1.643 1.996,1.638 0.003,0 0.005,0 0.009,-0.001 z m 3.981,-0.594 c -0.009,0 -0.017,0 -0.026,0 -0.297,0 -0.671,-0.173 -0.671,-0.173 l -0.266,-0.293 c -0.044,-0.048 -0.078,-0.08 -0.177,-0.188 0.108,-10e-4 0.163,0 0.313,-0.002 l 0.437,-0.004 c 0.727,0.253 0.755,0.544 0.552,0.628 -0.048,0.02 -0.103,0.03 -0.162,0.032 z m -4.55,0.04 c -0.067,0.001 -0.146,-0.007 -0.238,-0.028 -0.342,-0.078 -0.82,-0.363 -0.559,-0.624 l 0.431,-0.004 c 0.148,-0.001 0.199,-0.003 0.306,-0.004 0.093,0.107 0.116,0.139 0.157,0.187 h 0.001 l 0.252,0.291 c 0,0 -0.061,0.177 -0.35,0.182 z m 2.302,-1.122 -2.013,0.021 -1.085,-1.24 1.98,-0.024 z m -0.817,-1.679 c -0.093,-0.102 -0.115,-0.132 -0.156,-0.177 h -0.001 l -0.247,-0.272 c 0,0 0.086,-0.248 0.566,-0.146 0.333,0.071 0.81,0.335 0.563,0.584 l -0.425,0.006 c -0.145,0.002 -0.195,0.004 -0.3,0.005 z m -3.353,0.044 c -0.104,0.002 -0.156,10e-4 -0.299,0.003 l -0.418,0.005 c -0.67,-0.234 -0.67,-0.503 -0.474,-0.581 0.285,-0.112 0.799,0.127 0.799,0.127 l 0.234,0.27 v 0 c 0.039,0.045 0.07,0.075 0.158,0.176 z" /><path
       style="fill:#7d7b7c;fill-opacity:1;stroke:none;stroke-width:0.07;stroke-dasharray:none;stroke-opacity:1"
       d="m 51.405942,67.649953 2.78426,2.95612 h -0.9185 l -1.85891,-1.86921 -1.632616,1.86239 h -0.896371 z"
       id="path62767-5"
       sodipodi:nodetypes="ccccccc" /><path
       style="fill:#7d7b7c;fill-opacity:1;stroke:none;stroke-width:0.07;stroke-dasharray:none;stroke-opacity:1"
       d="m 77.978762,68.235483 h 1.90169 l 1.59103,2.52877 h 3.51913 v 0.69085 h -3.93096 l -1.55274,-2.48701 -1.48056,-0.0112 z"
       id="path62769-6"
       sodipodi:nodetypes="ccccccccc" /><path
       style="fill:#7d7b7c;fill-opacity:1;stroke:none;stroke-width:0.07;stroke-dasharray:none;stroke-opacity:1"
       d="m 81.249512,68.233623 v 0.72316 h 3.68043 v -0.71511 z"
       id="path62771-2"
       sodipodi:nodetypes="ccccc" /><path
       id="path62773-9"
       style="fill:#7d7b7c;fill-opacity:1;stroke:none;stroke-width:0.07;stroke-dasharray:none;stroke-opacity:1"
       d="m 122.5306,67.606233 c -0.002,1.1e-4 -0.005,4.5e-4 -0.007,5.1e-4 -0.55439,0.0165 -0.90072,0.54054 -0.90072,0.54054 v 0.92707 h -1.58233 l -0.0155,-5.1e-4 c 0,0 -0.0155,-0.51127 -0.0155,-0.88109 -0.99144,-1.21261 -2.01345,-0.19347 -2.01745,0.44339 0.0443,0.59298 0.63924,0.97461 0.63924,0.97461 h 0.81907 v 1.57769 h -0.81287 c -0.90487,0.74641 -0.46293,1.57373 0.0475,1.80609 0.73827,0.33605 1.33532,-0.42375 1.33532,-0.42375 v -0.84129 h 1.60559 v 0.81959 c 1.18414,1.21543 2.05921,0.0147 1.87327,-0.70849 -0.11165,-0.43426 -0.55914,-0.65319 -0.55914,-0.65319 h -0.72657 v -1.57148 c 0,0 0.39965,-0.0112 0.79116,0 1.24431,-0.94115 0.092,-2.00918 -0.46767,-2.00969 -0.002,-1e-5 -0.004,-1.2e-4 -0.007,0 z m -3.49591,0.66972 c 0.007,-2.6e-4 0.0135,-9e-5 0.0202,0 0.22994,0.003 0.39635,0.21549 0.39635,0.21549 v 0.35605 c 0,0.0589 0.004,0.0985 0.004,0.231 -0.0851,0 -0.12733,-0.002 -0.24495,-0.002 h -0.34365 c -0.38269,-0.31567 -0.1957,-0.66599 0.0202,-0.76429 0.0512,-0.0233 0.10065,-0.0344 0.14779,-0.0362 z m 3.56826,0 c 0.0531,-7.7e-4 0.10941,0.01 0.16795,0.0362 0.21586,0.0983 0.40228,0.44862 0.0196,0.76429 h -0.34365 c -0.11762,0 -0.15935,0.002 -0.24443,0.002 0,-0.13255 0.004,-0.17209 0.004,-0.231 h -5.2e-4 v -0.35605 c 0,0 0.16694,-0.21216 0.39688,-0.21549 z m -2.58279,1.33945 h 1.60352 v 1.57149 h -1.60559 z m -0.55965,2.12236 c 0,0.13255 -0.004,0.17156 -0.004,0.23047 l 5.2e-4,5.2e-4 v 0.35553 c 0,0 -0.25263,0.32143 -0.56482,0.17932 -0.21586,-0.0983 -0.40285,-0.44811 -0.0202,-0.76378 h 0.34417 c 0.11762,0 0.15935,-0.002 0.24443,-0.002 z m 2.7373,0 c 0.0851,0 0.12681,0.002 0.24443,0.002 h 0.34364 c 0.38269,0.31567 0.19623,0.66548 -0.0196,0.76378 -0.3122,0.14211 -0.56483,-0.17932 -0.56483,-0.17932 v -0.35553 l 5.2e-4,-5.2e-4 c 0,-0.0589 -0.004,-0.0979 -0.004,-0.23047 z" /><path
       style="display:inline;fill:#cdcdcd;fill-opacity:1;stroke:#cdcdcd;stroke-width:0.0852829;stroke-dasharray:none;stroke-opacity:1"
       d="m 36.047927,187.74146 -3.525658,13.4541 0.138079,3.19759 c 0,0 0.25584,1.517 1.252256,1.90731 0.996414,0.39033 20.103166,3.549 37.332407,-0.0852 -4.041812,6.18772 1.671152,-0.63407 2.120766,-3.51711 0.458859,-2.45055 -4.115678,-14.62981 -4.115678,-14.62981 -14.105292,0.54296 -15.213911,0.44999 -33.202172,-0.3269 z"
       id="path74018"
       sodipodi:nodetypes="cccscccc" /><path
       style="display:inline;fill:#111111;fill-opacity:1;stroke:#cdcdcd;stroke-width:0.07;stroke-dasharray:none;stroke-opacity:1"
       d="m 32.509801,201.20239 3.340334,-13.69922 c 0,0 0.350634,-0.99876 2.018866,-0.97742 0.834118,0.0107 8.56068,0.006 16.078713,-4.2e-4 7.518033,-0.007 14.827537,-0.0165 14.827537,-0.0165 0,0 1.54829,0.17965 1.60612,1.36911 0.0578,1.18946 2.978313,13.19201 2.978313,13.19201 -4.625188,4.50208 -14.233383,3.92556 -19.514965,4.082 -4.150659,0.0135 -19.663685,0.81393 -21.334918,-3.94958 z"
       id="path74020"
       sodipodi:nodetypes="cccscsccc" /><rect
       style="opacity:1;fill:#7d7b7c;fill-opacity:1;stroke:none;stroke-width:0.07;stroke-dasharray:none;stroke-opacity:1"
       id="rect74267"
       width="21.670889"
       height="21.670889"
       x="26.274429"
       y="236.78831"
       ry="3" /><path
       style="opacity:1;fill:#7d7b7c;fill-opacity:1;stroke:none;stroke-width:0.110988;stroke-dasharray:none;stroke-opacity:1"
       d="m 61.71645,237.50705 h 32.449103 l 4.798871,22.82366 H 77.94076 56.917096 Z"
       id="path74269"
       sodipodi:nodetypes="cccccc" /></g></svg>
